<?xml version="1.0" standalone="no"?>
<!DOCTYPE svg PUBLIC "-//W3C//DTD SVG 20010904//EN"
 "http://www.w3.org/TR/2001/REC-SVG-20010904/DTD/svg10.dtd">
<svg version="1.0" xmlns="http://www.w3.org/2000/svg"
 width="786.000000pt" height="786.000000pt" viewBox="0 0 786.000000 786.000000"
 preserveAspectRatio="xMidYMid meet">
<metadata>
Created by potrace 1.11, written by Peter Selinger 2001-2013
</metadata>
<g transform="translate(0.000000,786.000000) scale(0.100000,-0.100000)"
fill="#000000" stroke="none">
<path d="M4297 7694 c-1 -1 -74 -5 -162 -8 -364 -16 -507 -24 -690 -41 -27 -3
-79 -7 -115 -10 -83 -7 -105 -11 -105 -17 0 -3 54 -45 120 -95 66 -49 157
-124 202 -167 93 -88 178 -184 170 -192 -3 -4 -149 -7 -324 -9 -286 -3 -516
-10 -673 -20 -95 -6 -233 -16 -280 -20 -25 -2 -79 -7 -120 -10 -209 -17 -286
-24 -330 -30 -19 -3 -71 -8 -114 -11 -44 -3 -87 -7 -95 -9 -9 -2 -45 -6 -81
-10 -57 -6 -431 -67 -485 -79 -11 -2 -54 -12 -95 -20 -41 -9 -123 -29 -182
-44 l-106 -27 105 -80 c57 -44 114 -88 126 -97 12 -10 75 -58 140 -108 l118
-91 -38 -37 c-22 -20 -77 -71 -123 -112 -47 -41 -87 -77 -90 -80 -3 -3 -32
-28 -65 -55 -33 -28 -62 -52 -65 -55 -16 -18 -189 -147 -270 -202 -131 -88
-219 -140 -348 -203 l-84 -41 29 -28 c40 -41 140 -114 193 -141 64 -32 139
-52 216 -57 24 -2 40 -6 36 -9 -4 -4 -74 -50 -157 -104 -381 -249 -526 -347
-522 -352 10 -9 92 -53 174 -93 99 -48 205 -85 296 -102 l66 -12 -77 -41
c-312 -162 -485 -412 -486 -700 0 -67 11 -165 21 -193 8 -20 12 -15 36 46 15
38 27 75 27 81 0 7 4 10 9 7 4 -3 12 -38 17 -78 4 -40 8 -80 9 -88 1 -8 5 -46
9 -85 4 -38 9 -83 11 -100 5 -39 13 -106 20 -180 4 -33 8 -71 10 -85 2 -14 7
-47 10 -75 3 -27 10 -72 15 -100 5 -27 12 -68 15 -90 4 -33 15 -94 20 -115 1
-3 5 -27 10 -55 5 -27 10 -52 10 -55 1 -3 5 -25 9 -50 5 -25 10 -54 13 -65 9
-40 99 -566 108 -630 3 -16 7 -41 10 -55 12 -60 15 -78 21 -120 4 -25 8 -52 9
-60 1 -8 5 -33 8 -55 4 -22 9 -94 12 -160 5 -125 12 -219 21 -295 3 -25 7 -58
9 -75 20 -193 35 -220 128 -246 20 -5 53 -23 72 -40 45 -40 132 -219 186 -385
23 -71 52 -149 65 -174 34 -69 106 -143 172 -178 55 -30 241 -83 337 -97 22
-3 47 -7 55 -10 8 -2 40 -6 71 -10 31 -3 67 -8 80 -10 13 -3 53 -7 89 -10 36
-3 88 -8 115 -10 266 -22 612 -22 830 1 28 3 73 7 100 10 82 7 231 32 335 55
25 6 52 12 60 14 43 9 141 52 180 79 117 79 161 152 249 410 79 230 107 283
201 377 90 90 214 159 284 159 87 -1 197 -62 301 -165 82 -82 113 -136 165
-288 97 -285 118 -331 177 -404 54 -66 168 -138 253 -159 160 -40 251 -57 390
-73 148 -18 182 -21 305 -27 205 -10 372 -8 655 10 180 12 452 53 597 91 135
36 215 85 287 179 43 57 55 83 96 206 18 52 55 153 83 223 59 150 111 219 174
233 105 21 101 16 133 209 9 55 17 149 25 285 8 138 17 558 21 1030 2 283 6
535 8 560 2 25 6 99 10 165 4 66 9 136 11 155 2 19 6 82 10 140 4 58 9 123 11
145 2 22 6 76 9 120 3 44 7 105 10 135 24 261 30 388 30 640 0 252 -5 332 -26
440 -37 189 -101 323 -204 425 -63 63 -177 136 -191 122 -3 -2 -20 -66 -39
-141 -85 -343 -250 -674 -516 -1032 -67 -92 -81 -110 -130 -168 -54 -64 -54
-64 -9 -209 23 -72 48 -150 55 -172 8 -22 37 -114 65 -205 28 -91 56 -176 61
-190 4 -14 45 -142 90 -285 84 -269 99 -317 194 -620 31 -99 63 -202 70 -230
45 -172 114 -423 120 -436 5 -14 0 -16 -27 -14 -18 2 -69 6 -113 10 -44 3 -93
8 -110 10 -16 2 -82 7 -145 10 -63 4 -137 8 -165 10 -384 27 -1517 27 -1750 0
-22 -2 -65 -7 -95 -10 -30 -4 -77 -11 -105 -16 -27 -6 -63 -13 -80 -16 -54 -9
-239 -72 -304 -103 -178 -86 -360 -114 -541 -83 -100 17 -166 38 -308 99 -103
44 -211 77 -284 88 -73 11 -113 17 -136 21 -13 2 -52 7 -87 10 -35 4 -79 8
-97 10 -186 20 -1185 27 -1473 11 -77 -4 -167 -9 -200 -11 -173 -9 -274 -16
-308 -21 l-39 -5 6 38 c3 21 12 79 21 128 9 50 18 101 20 115 22 134 40 234
61 335 33 158 32 154 38 173 3 9 7 28 10 42 14 81 42 169 62 196 35 46 165
108 534 255 184 73 337 134 340 135 3 0 16 5 30 11 14 6 54 23 90 38 118 49
284 133 370 189 47 30 86 53 89 51 2 -2 -74 -81 -168 -176 -94 -94 -171 -173
-171 -175 0 -2 6 -2 13 1 6 2 30 6 52 9 257 33 646 135 915 241 111 44 289
128 343 162 21 13 55 33 75 44 l37 21 -34 -32 c-30 -28 -76 -68 -201 -173 -37
-32 -271 -187 -281 -187 -5 0 -9 -4 -9 -9 0 -15 477 2 670 24 19 2 64 7 100
11 36 3 72 7 80 9 8 1 35 6 60 10 73 11 94 14 120 20 14 3 36 8 50 10 131 22
386 100 505 155 62 29 175 100 235 148 41 33 41 25 0 -19 -33 -36 -181 -148
-293 -223 -65 -43 -116 -80 -113 -83 10 -11 752 235 931 308 11 4 83 33 160
65 277 113 811 388 870 449 107 109 337 431 432 605 17 30 44 80 61 112 87
156 177 399 211 569 16 76 27 108 42 119 134 99 176 149 205 240 38 120 15
254 -70 395 -203 339 -820 797 -1412 1050 -239 102 -577 201 -784 231 -19 2
-44 7 -56 9 -35 8 -155 24 -224 30 -36 3 -78 8 -95 10 -92 12 -637 28 -648 19z
m2120 -7400 c-3 -3 -12 -4 -19 -1 -8 3 -5 6 6 6 11 1 17 -2 13 -5z m-770 -10
c-3 -3 -12 -4 -19 -1 -8 3 -5 6 6 6 11 1 17 -2 13 -5z m680 0 c-3 -3 -12 -4
-19 -1 -8 3 -5 6 6 6 11 1 17 -2 13 -5z"/>
</g>
</svg>
