<?xml version="1.0" standalone="no"?>
<!DOCTYPE svg PUBLIC "-//W3C//DTD SVG 20010904//EN"
 "http://www.w3.org/TR/2001/REC-SVG-20010904/DTD/svg10.dtd">
<svg version="1.0" xmlns="http://www.w3.org/2000/svg"
 width="580.000000pt" height="980.000000pt" viewBox="0 0 580.000000 980.000000"
 preserveAspectRatio="xMidYMid meet">

<g transform="translate(0.000000,980.000000) scale(0.100000,-0.100000)"
fill="#ffffff" stroke="#000000">
<path d="M1957 9790 c-96 -8 -116 -19 -147 -80 -32 -64 -44 -174 -44 -415 0
-246 9 -320 47 -395 41 -82 40 -81 506 -91 223 -5 442 -10 486 -11 l79 -3 33
-43 c49 -64 45 -103 -19 -184 l-30 -38 -181 0 c-100 0 -300 -3 -444 -7 l-263
-6 0 -421 c-1 -612 -16 -791 -80 -932 -75 -165 -229 -320 -617 -619 -719 -556
-1043 -867 -1174 -1127 -50 -99 -75 -195 -90 -338 -16 -155 -25 -3908 -10
-4248 11 -258 20 -308 77 -430 71 -155 179 -273 310 -337 l74 -37 202 -11
c283 -16 4173 -16 4457 0 l204 12 76 37 c56 27 96 57 151 113 86 87 133 163
193 311 l42 105 3 1995 c3 2023 -2 2437 -33 2615 -19 109 -95 273 -176 379
-159 210 -482 501 -1029 926 -488 380 -628 532 -700 765 -29 96 -39 343 -40
1001 l0 520 53 17 c60 19 98 54 122 110 43 104 59 447 30 642 -17 111 -45 178
-88 209 -28 21 -37 21 -960 22 -513 1 -971 -2 -1020 -6z m47 -3439 c27 -27 30
-37 31 -92 l0 -61 -60 -56 c-123 -116 -653 -512 -723 -541 -26 -11 -36 -10
-76 8 -37 16 -51 29 -66 63 -25 55 -25 72 2 119 25 46 103 112 363 310 334
255 394 293 459 285 26 -3 49 -15 70 -35z m-664 -1896 c-55 -235 -24 -413 95
-553 122 -142 342 -229 601 -239 165 -7 202 -1 244 34 66 55 146 52 443 -21
l177 -43 178 43 c288 71 381 76 435 26 36 -34 73 -42 195 -42 186 0 319 29
467 100 144 70 243 181 288 325 29 94 28 244 -2 368 -30 127 -28 131 34 65
123 -131 189 -256 219 -417 27 -142 14 -299 -33 -407 -58 -131 -183 -252 -347
-336 -155 -80 -303 -122 -514 -148 -137 -16 -133 -15 -127 -62 9 -65 21 -71
97 -46 55 18 89 22 215 22 127 1 162 -3 230 -22 85 -24 237 -91 233 -102 -7
-17 -180 -166 -233 -201 -87 -58 -164 -78 -320 -86 l-133 -6 -5 -51 c-10 -98
-119 -381 -267 -698 l-88 -186 24 -129 c14 -70 22 -138 19 -151 -9 -38 -71
-97 -137 -132 -35 -18 -101 -56 -147 -84 l-85 -51 -195 0 -196 0 -95 56 c-52
31 -117 68 -145 82 -57 29 -109 79 -124 120 -8 22 -6 61 10 165 l21 137 -82
175 c-164 350 -270 628 -270 710 l0 40 -72 0 c-205 0 -315 32 -432 123 -52 41
-186 164 -186 171 0 9 170 79 237 98 112 33 325 33 433 1 87 -26 98 -21 107
45 6 48 9 46 -129 62 -395 46 -709 209 -828 431 -53 100 -71 166 -77 279 -11
219 61 409 224 589 37 41 59 59 61 50 1 -8 -7 -55 -18 -104z"/>
<path d="M2187 2700 c-72 -57 -20 -168 68 -146 67 17 85 83 36 135 -34 36 -67
40 -104 11z"/>
<path d="M3509 2691 c-35 -35 -39 -81 -9 -111 43 -43 110 -38 135 11 21 39 12
82 -22 109 -36 28 -69 25 -104 -9z"/>
<path d="M2532 1678 c-27 -27 1 -99 66 -168 42 -43 84 -53 100 -23 19 33 -22
119 -84 172 -37 33 -62 39 -82 19z"/>
<path d="M3173 1654 c-48 -51 -75 -108 -71 -152 2 -30 7 -38 27 -40 32 -5 112
79 136 143 l19 48 -23 18 c-33 27 -49 24 -88 -17z"/>
</g>
</svg>
